HIERARCHY
ROOT Hips
{
	OFFSET 0.00000 0.00000 0.00000
	CHANNELS 6 Xposition Yposition Zposition Zrotation Yrotation Xrotation 
	JOINT RightUpLegDummy
	{
		OFFSET 0 0 0
		CHANNELS 3 Zrotation Yrotation Xrotation
		JOINT RightUpLeg
		{
			OFFSET -3.52197 -3.41223 0.04002
			CHANNELS 3 Zrotation Yrotation Xrotation
			JOINT RightLeg
			{
				OFFSET -1.06336 -17.58347 1.60435
				CHANNELS 3 Zrotation Yrotation Xrotation
				JOINT RightFoot
				{
					OFFSET -0.27018 -17.05419 -1.63900
					CHANNELS 3 Zrotation Yrotation Xrotation
					JOINT RightToes
					{
						OFFSET 0.00298 -1.73825 3.34613
						CHANNELS 3 Zrotation Yrotation Xrotation
						End Site
						{
							OFFSET 0.00480 -0.05416 3.85043
						}
					}
				}
			}
		}
	}
	JOINT SpineDummy
	{
		OFFSET 0 0 0
		CHANNELS 3 Zrotation Yrotation Xrotation
		JOINT Spine
		{
			OFFSET 0.00000 4.14613 0.00000
			CHANNELS 3 Zrotation Yrotation Xrotation
			JOINT Spine1
			{
				OFFSET 0.00000 10.93369 0.05002
				CHANNELS 3 Zrotation Yrotation Xrotation
				JOINT HEadDummy
				{
					OFFSET 0 0 0
					CHANNELS 3 Zrotation Yrotation Xrotation
					JOINT Head
					{
						OFFSET 0.00000 5.52901 0.00438
						CHANNELS 3 Zrotation Yrotation Xrotation
						End Site
						{
							OFFSET -0.11417 7.29012 0.98962
						}
					}
				}
				JOINT LeftShoulder1Dummy
				{
					OFFSET 0 0 0
					CHANNELS 3 Zrotation Yrotation Xrotation
					JOINT LeftShoulder1
					{
						OFFSET 3.53937 -0.14262 -0.08662
						CHANNELS 3 Zrotation Yrotation Xrotation
						JOINT LeftArm
						{
							OFFSET 4.04833 -0.00133 0.12681
							CHANNELS 3 Zrotation Yrotation Xrotation
							JOINT LeftForeArm
							{
								OFFSET 9.67557 0.03289 -0.56117
								CHANNELS 3 Zrotation Yrotation Xrotation
								JOINT LeftHand
								{
									OFFSET 10.17679 0.06873 0.40307
									CHANNELS 3 Zrotation Yrotation Xrotation
									End Site
									{
										OFFSET 6.59293 -0.21483 0.59213
									}
								}
							}
						}
					}
				}
				JOINT RightShoulderDummy
				{
					OFFSET 0 0 0
					CHANNELS 3 Zrotation Yrotation Xrotation
					JOINT RightShoulder
					{
						OFFSET -3.53937 -0.14262 -0.08660
						CHANNELS 3 Zrotation Yrotation Xrotation
						JOINT RightArm
						{
							OFFSET -4.04833 -0.00132 0.12683
							CHANNELS 3 Zrotation Yrotation Xrotation
							JOINT RightForeArm
							{
								OFFSET -9.67570 0.03289 -0.56114
								CHANNELS 3 Zrotation Yrotation Xrotation
								JOINT RightHand
								{
									OFFSET -10.17679 0.06867 0.40304
									CHANNELS 3 Zrotation Yrotation Xrotation
									End Site
									{
										OFFSET -6.54841 -0.21495 0.59212
									}
								}
							}
						}
					}
				}
			}
		}
	}
	JOINT LeftUpLegDummy
	{
		OFFSET 0 0 0
		CHANNELS 3 Zrotation Yrotation Xrotation
		JOINT LeftUpLeg
		{
			OFFSET 3.52197 -3.41223 0.04002
			CHANNELS 3 Zrotation Yrotation Xrotation
			JOINT LeftLeg
			{
				OFFSET 1.08359 -17.35354 1.60336
				CHANNELS 3 Zrotation Yrotation Xrotation
				JOINT LeftFoot
				{
					OFFSET 0.24986 -17.28405 -1.63802
					CHANNELS 3 Zrotation Yrotation Xrotation
					JOINT LeftToes
					{
						OFFSET -0.01575 -1.73822 3.34610
						CHANNELS 3 Zrotation Yrotation Xrotation
						End Site
						{
							OFFSET 0.03150 -0.01868 3.85031
						}
					}
				}
			}
		}
	}
}
MOTION
Frames: 19
Frame Time: 0.033333
3.0512 41.2109 -0.4694 -178.5640 -88.6180 -179.4640 0.0000 0.0000 0.0000 -1.9639 -3.9765 -1.3209 -1.3692 -0.2054 3.1146 -5.0523 0.3872 -3.6811 -0.0000 -0.0000 0.0000 0.0000 0.0000 0.0000 -2.7589 0.0164 -5.6698 1.2234 -0.0395 7.3555 0.0000 0.0000 0.0000 1.6263 -6.6162 -2.7348 0.0000 0.0000 0.0000 -1.5365 2.2737 0.2328 6.2940 -11.4396 -33.4901 -8.4623 5.4573 27.8442 2.8442 -0.6451 -0.1254 0.0000 0.0000 0.0000 0.9216 -1.3852 0.2473 -4.1596 10.6783 -28.7875 4.3639 -5.3499 21.3356 -1.9638 -2.3690 -0.0520 0.0000 0.0000 0.0000 3.2772 6.4357 -2.7073 0.0119 -1.5227 1.3765 5.3149 -0.5028 -0.2841 -0.0000 0.0000 -0.0000
3.0558 41.2109 -0.4694 -179.1960 -88.6152 -178.8580 0.0000 0.0000 0.0000 -1.9805 -3.9911 -1.3047 -1.3717 -0.1647 3.1304 -5.0816 0.3892 -3.7000 -0.0000 -0.0000 0.0000 0.0000 0.0000 0.0000 -2.8083 0.0181 -5.6065 1.2612 -0.0374 7.2841 0.0000 0.0000 0.0000 1.6064 -6.6248 -2.6772 0.0000 0.0000 0.0000 -1.5106 2.3012 0.2328 6.3149 -11.4491 -33.5159 -8.4523 5.4565 27.9106 2.8465 -0.6513 -0.1254 0.0000 0.0000 0.0000 0.9030 -1.3380 0.2473 -4.1565 10.6270 -28.7734 4.3666 -5.3684 21.3158 -1.9729 -2.2552 -0.0509 0.0000 0.0000 0.0000 3.2658 6.4357 -2.6854 0.0113 -1.5125 1.3766 5.3146 -0.5028 -0.2916 -0.0000 0.0000 -0.0000
3.0653 41.2109 -0.4694 179.6380 -88.5995 -177.7460 0.0000 0.0000 0.0000 -2.0093 -4.0124 -1.2756 -1.3754 -0.1080 3.1610 -5.1055 0.3908 -3.7312 -0.0000 -0.0000 0.0000 0.0000 0.0000 0.0000 -2.8698 0.0394 -5.5115 1.2863 -0.0175 7.2015 0.0000 0.0000 0.0000 1.5786 -6.6799 -2.6239 0.0000 0.0000 0.0000 -1.4427 2.3093 0.2328 6.3409 -11.4670 -33.5944 -8.4098 5.4543 28.1185 2.9008 -0.7227 -0.1250 0.0000 0.0000 0.0000 0.8808 -1.3047 0.2473 -4.1301 10.5613 -28.8039 4.3366 -5.3907 21.3326 -1.9255 -2.1602 -0.0504 0.0000 0.0000 0.0000 3.2460 6.4357 -2.6379 0.0098 -1.4883 1.3746 5.3170 -0.5029 -0.2912 -0.0000 0.0000 -0.0000
3.0736 41.2109 -0.4694 178.8680 -88.5780 -177.0140 0.0000 0.0000 0.0000 -2.0302 -4.0303 -1.2693 -1.3747 -0.0570 3.1945 -5.1080 0.3910 -3.7527 -0.0000 -0.0000 0.0000 0.0000 0.0000 0.0000 -2.8878 0.0751 -5.4930 1.2756 0.0247 7.2099 0.0000 0.0000 0.0000 1.5677 -6.7100 -2.6541 0.0000 0.0000 0.0000 -1.3654 2.2935 0.2328 6.3439 -11.4786 -33.6256 -8.3896 5.4526 28.2593 2.9348 -0.8160 -0.1247 0.0000 0.0000 0.0000 0.8755 -1.3266 0.2473 -4.0947 10.5226 -28.8404 4.3035 -5.3959 21.3600 -1.8601 -2.1762 -0.0509 0.0000 0.0000 0.0000 3.2314 6.4357 -2.6011 0.0081 -1.4606 1.3625 5.3302 -0.5038 -0.2700 -0.0000 0.0000 -0.0000
3.0770 41.2109 -0.4694 179.0050 -88.5693 -177.1430 0.0000 0.0000 0.0000 -2.0349 -4.0469 -1.2780 -1.3539 -0.0265 3.1805 -5.1153 0.3915 -3.7411 -0.0000 -0.0000 0.0000 0.0000 0.0000 0.0000 -2.8602 0.0962 -5.5777 1.2533 0.0525 7.2935 0.0000 0.0000 0.0000 1.5429 -6.6462 -2.7246 0.0000 0.0000 0.0000 -1.3206 2.3132 0.2311 6.3337 -11.4928 -33.5582 -8.4303 5.4534 28.1716 2.8852 -0.8288 -0.1252 0.0000 0.0000 0.0000 0.8903 -1.3678 0.2473 -4.0825 10.5278 -28.8257 4.3128 -5.4130 21.3264 -1.8694 -2.2452 -0.0515 0.0000 0.0000 0.0000 3.2325 6.4355 -2.6049 0.0074 -1.4488 1.3446 5.3391 -0.5044 -0.2467 -0.0000 0.0000 -0.0000
3.0785 41.2109 -0.4694 179.3850 -88.5740 -177.4980 0.0000 0.0000 0.0000 -2.0377 -4.0684 -1.2745 -1.3222 -0.0201 3.1165 -5.1300 0.3923 -3.7055 -0.0000 -0.0000 0.0000 0.0000 0.0000 0.0000 -2.8027 0.0907 -5.6727 1.2022 0.0570 7.3436 0.0000 0.0000 0.0000 1.4512 -6.5377 -2.7386 0.0000 0.0000 0.0000 -1.2949 2.3756 0.2243 6.3285 -11.5206 -33.4815 -8.4832 5.4552 27.9905 2.8094 -0.7583 -0.1250 0.0000 0.0000 0.0000 0.9167 -1.3825 0.2473 -4.0771 10.5591 -28.7906 4.3411 -5.4473 21.2668 -1.9215 -2.2983 -0.0516 0.0000 0.0000 0.0000 3.2395 6.4348 -2.6323 0.0076 -1.4512 1.3368 5.3253 -0.5035 -0.2409 -0.0000 0.0000 -0.0000
3.0831 41.2109 -0.4694 179.0580 -88.5777 -177.1720 0.0000 0.0000 0.0000 -2.0545 -4.0941 -1.2650 -1.3038 -0.0087 3.0860 -5.1219 0.3917 -3.6849 -0.0000 -0.0000 0.0000 0.0000 0.0000 0.0000 -2.7290 0.0773 -5.6925 1.0997 0.0637 7.3208 0.0000 0.0000 0.0000 1.3014 -6.4655 -2.6986 0.0000 0.0000 0.0000 -1.2412 2.4148 0.2186 6.3060 -11.5352 -33.4659 -8.4960 5.4563 27.8985 2.7932 -0.6983 -0.1223 0.0000 0.0000 0.0000 0.9439 -1.3645 0.2473 -4.0455 10.5645 -28.7750 4.3476 -5.4404 21.2471 -1.9109 -2.3306 -0.0520 0.0000 0.0000 0.0000 3.2321 6.4316 -2.6346 0.0073 -1.4462 1.3308 5.3038 -0.5021 -0.2406 -0.0000 0.0000 -0.0000
3.0908 41.2109 -0.4694 178.2860 -88.5801 -176.4370 0.0000 0.0000 0.0000 -2.0761 -4.1159 -1.2604 -1.3041 0.0198 3.1251 -5.0904 0.3897 -3.6881 -0.0000 -0.0000 0.0000 0.0000 0.0000 0.0000 -2.6716 0.0742 -5.6677 1.0204 0.0767 7.3099 0.0000 0.0000 0.0000 1.1599 -6.4226 -2.7023 0.0000 0.0000 0.0000 -1.1844 2.4012 0.2162 6.2509 -11.5094 -33.4590 -8.4909 5.4565 27.8512 2.8235 -0.6726 -0.1195 0.0000 0.0000 0.0000 0.9584 -1.3367 0.2473 -4.0124 10.5216 -28.7486 4.3518 -5.3767 21.2167 -1.8511 -2.3347 -0.0524 0.0000 0.0000 0.0000 3.2139 6.4188 -2.6009 0.0072 -1.4453 1.3181 5.2998 -0.5018 -0.2304 -0.0000 0.0000 -0.0000
3.0995 41.2109 -0.4694 178.0490 -88.5936 -176.2410 0.0000 0.0000 0.0000 -2.0848 -4.1298 -1.2427 -1.3050 0.0290 3.1545 -5.0784 0.3889 -3.6811 -0.0000 -0.0000 0.0000 0.0000 0.0000 0.0000 -2.6615 0.0795 -5.6619 1.0534 0.0745 7.3582 0.0000 0.0000 0.0000 1.0708 -6.3675 -2.7713 0.0000 0.0000 0.0000 -1.2077 2.3841 0.2147 6.2102 -11.4780 -33.4199 -8.5006 5.4538 27.7564 2.8247 -0.6081 -0.1172 0.0000 0.0000 0.0000 0.9498 -1.3183 0.2473 -4.0145 10.4756 -28.7101 4.3728 -5.3482 21.1246 -1.8471 -2.2544 -0.0517 0.0000 0.0000 0.0000 3.2078 6.4109 -2.5757 0.0080 -1.4576 1.3219 5.3157 -0.5029 -0.2213 -0.0000 0.0000 -0.0000
3.1092 41.2109 -0.4691 178.2240 -88.6176 -176.4430 0.0000 0.0000 0.0000 -2.0877 -4.1438 -1.2115 -1.2954 0.0075 3.1342 -5.1034 0.3904 -3.6566 -0.0000 -0.0000 0.0000 0.0000 0.0000 0.0000 -2.6748 0.0861 -5.6569 1.1363 0.0618 7.3863 0.0000 0.0000 0.0000 1.0376 -6.3189 -2.8085 0.0000 0.0000 0.0000 -1.3001 2.3944 0.2134 6.2244 -11.4975 -33.4016 -8.5117 5.4519 27.6737 2.7767 -0.5028 -0.1163 0.0000 0.0000 0.0000 0.9272 -1.3152 0.2473 -4.0152 10.4744 -28.7375 4.3646 -5.4258 21.0657 -1.9059 -2.0894 -0.0499 0.0000 0.0000 0.0000 3.2130 6.4160 -2.5828 0.0096 -1.4837 1.3533 5.3383 -0.5043 -0.2181 -0.0000 0.0000 -0.0000
3.1207 41.2109 -0.4673 177.8210 -88.6435 -176.0700 0.0000 0.0000 0.0000 -2.1034 -4.1657 -1.1978 -1.2866 0.0014 3.1391 -5.1235 0.3917 -3.6495 -0.0000 -0.0000 0.0000 0.0000 0.0000 0.0000 -2.6606 0.0908 -5.6134 1.1343 0.0655 7.3513 0.0000 0.0000 0.0000 1.0720 -6.3138 -2.7738 0.0000 0.0000 0.0000 -1.3398 2.3993 0.2124 6.2543 -11.5596 -33.4299 -8.5101 5.4558 27.6854 2.7497 -0.4642 -0.1170 0.0000 0.0000 0.0000 0.9189 -1.3286 0.2473 -3.9653 10.4976 -28.8344 4.3084 -5.5341 21.1075 -1.9355 -1.9664 -0.0487 0.0000 0.0000 0.0000 3.2038 6.4113 -2.5831 0.0105 -1.4986 1.3717 5.3508 -0.5051 -0.2011 -0.0000 0.0000 -0.0000
3.1329 41.2109 -0.4652 176.8960 -88.6750 -175.1850 0.0000 0.0000 0.0000 -2.1275 -4.1887 -1.2003 -1.2865 0.0126 3.1911 -5.0971 0.3900 -3.6578 -0.0000 -0.0000 0.0000 0.0000 0.0000 0.0000 -2.6218 0.0904 -5.5777 1.0544 0.0824 7.3580 0.0000 0.0000 0.0000 1.1911 -6.3446 -2.7680 0.0000 0.0000 0.0000 -1.2825 2.3800 0.2117 6.2611 -11.6122 -33.4582 -8.5073 5.4604 27.7633 2.8265 -0.5365 -0.1216 0.0000 0.0000 0.0000 0.9374 -1.3574 0.2473 -3.9035 10.4981 -28.8773 4.2757 -5.5630 21.1456 -1.8973 -1.9977 -0.0492 0.0000 0.0000 0.0000 3.1789 6.3855 -2.5555 0.0112 -1.5101 1.3547 5.3419 -0.5045 -0.1678 -0.0000 0.0000 -0.0000
3.1463 41.2109 -0.4627 176.4660 -88.7063 -174.7820 0.0000 0.0000 0.0000 -2.1418 -4.1998 -1.1960 -1.2851 -0.0125 3.2032 -5.0431 0.3865 -3.6332 -0.0000 -0.0000 0.0000 0.0000 0.0000 0.0000 -2.6009 0.0906 -5.6124 1.0093 0.0926 7.4764 0.0000 0.0000 0.0000 1.3635 -6.4086 -2.8543 0.0000 0.0000 0.0000 -1.2204 2.3644 0.2112 6.2700 -11.6377 -33.4724 -8.5076 5.4634 27.8452 2.9950 -0.6258 -0.1309 0.0000 0.0000 0.0000 0.9649 -1.3888 0.2473 -3.8910 10.4658 -28.8280 4.2986 -5.5543 21.1243 -1.8325 -2.1207 -0.0506 0.0000 0.0000 0.0000 3.1639 6.3684 -2.5522 0.0096 -1.5335 1.3484 5.3332 -0.5040 -0.1421 -0.0000 0.0000 -0.0000
3.1632 41.2109 -0.4577 176.4720 -88.7073 -174.7820 0.0000 0.0000 0.0000 -2.1503 -4.2001 -1.2145 -1.2837 -0.0441 3.1749 -5.0163 0.3846 -3.5812 -0.0000 -0.0000 0.0000 0.0000 0.0000 0.0000 -2.6084 0.1069 -5.6688 1.0222 0.1061 7.5896 0.0000 0.0000 0.0000 1.5098 -6.5333 -2.9319 0.0000 0.0000 0.0000 -1.1978 2.3631 0.2110 6.2745 -11.6427 -33.4901 -8.5006 5.4690 27.8663 3.1358 -0.6471 -0.1368 0.0000 0.0000 0.0000 0.9858 -1.3995 0.2473 -3.9101 10.4095 -28.8120 4.2984 -5.5232 21.1516 -1.7720 -2.1919 -0.0512 0.0000 0.0000 0.0000 3.1565 6.3737 -2.6034 -0.0018 -1.5334 1.3797 5.3637 -0.5059 -0.1258 -0.0000 0.0000 -0.0000
3.1829 41.2109 -0.4497 176.0300 -88.6796 -174.3320 0.0000 0.0000 0.0000 -2.1680 -4.2047 -1.2799 -1.2863 0.0011 3.2058 -5.0359 0.3858 -3.5601 -0.0000 -0.0000 0.0000 0.0000 0.0000 0.0000 -2.6307 0.1324 -5.6588 1.0441 0.1281 7.5840 0.0000 0.0000 0.0000 1.5715 -6.6897 -2.9045 0.0000 0.0000 0.0000 -1.1471 2.3524 0.2109 6.2163 -11.6110 -33.4754 -8.5005 5.4708 27.7470 3.1430 -0.6216 -0.1345 0.0000 0.0000 0.0000 1.0070 -1.3847 0.2473 -3.9256 10.3357 -28.8778 4.2460 -5.4829 21.2117 -1.7180 -2.1962 -0.0499 0.0000 0.0000 0.0000 3.1325 6.3678 -2.6506 -0.0085 -1.4880 1.4034 5.4097 -0.5091 -0.1048 -0.0000 0.0000 -0.0000
3.2010 41.2109 -0.4407 175.7170 -88.6801 -174.0370 0.0000 0.0000 0.0000 -2.1847 -4.2169 -1.3199 -1.2880 0.0579 3.2583 -5.0607 0.3874 -3.5607 -0.0000 -0.0000 0.0000 0.0000 0.0000 0.0000 -2.6674 0.1316 -5.6079 1.0808 0.1209 7.5372 0.0000 0.0000 0.0000 1.5662 -6.7677 -2.8325 0.0000 0.0000 0.0000 -1.0624 2.3354 0.2111 6.1363 -11.5399 -33.4150 -8.5133 5.4656 27.5542 3.0400 -0.5932 -0.1301 0.0000 0.0000 0.0000 1.0270 -1.3696 0.2473 -3.9526 10.2755 -28.8928 4.2325 -5.3973 21.1583 -1.6832 -2.2358 -0.0485 0.0000 0.0000 0.0000 3.1091 6.3443 -2.6623 0.0000 -1.4662 1.4088 5.4030 -0.5094 -0.0972 -0.0000 0.0000 -0.0000
3.2187 41.2109 -0.4313 176.7150 -88.7186 -175.0530 0.0000 0.0000 0.0000 -2.1816 -4.2226 -1.2893 -1.2785 0.0113 3.2068 -5.0489 0.3865 -3.5191 -0.0000 -0.0000 0.0000 0.0000 0.0000 0.0000 -2.6941 0.1013 -5.5958 1.1274 0.0786 7.5458 0.0000 0.0000 0.0000 1.5534 -6.7123 -2.7877 0.0000 0.0000 0.0000 -1.0214 2.3490 0.2114 6.1515 -11.4904 -33.3920 -8.5179 5.4609 27.4988 2.9402 -0.5738 -0.1278 0.0000 0.0000 0.0000 1.0196 -1.3663 0.2473 -3.9814 10.2607 -28.7915 4.2920 -5.2880 21.0627 -1.6981 -2.3422 -0.0470 0.0000 0.0000 0.0000 3.1233 6.3542 -2.7045 -0.0115 -1.5116 1.4585 5.3715 -0.5080 -0.1159 -0.0000 0.0000 -0.0000
3.2427 41.2109 -0.4178 178.0070 -88.6965 -176.3370 0.0000 0.0000 0.0000 -2.1803 -4.2208 -1.3035 -1.2600 -0.0066 3.1406 -5.0256 0.3854 -3.4428 -0.0000 -0.0000 0.0000 0.0000 0.0000 0.0000 -2.6535 0.1002 -5.6023 1.0966 0.0793 7.5504 0.0000 0.0000 0.0000 1.5370 -6.6075 -2.7209 0.0000 0.0000 0.0000 -1.0093 2.3986 0.2120 6.2281 -11.5226 -33.4439 -8.4968 5.4599 27.6134 2.9107 -0.5924 -0.1277 0.0000 0.0000 0.0000 0.9721 -1.3537 0.2473 -3.9696 10.2709 -28.7017 4.3328 -5.2307 21.1078 -1.7590 -2.4426 -0.0453 0.0000 0.0000 0.0000 3.1446 6.4051 -2.7960 -0.0559 -1.5134 1.5483 5.4241 -0.5120 -0.1190 -0.0000 0.0000 -0.0000
3.2745 41.2113 -0.3944 177.7210 -88.5395 -176.0440 0.0000 0.0000 0.0000 -2.2243 -4.2402 -1.4648 -1.2400 0.2288 3.2518 -5.0454 0.3896 -3.3395 -0.0000 -0.0000 0.0000 0.0000 0.0000 0.0000 -2.5228 0.1709 -5.5661 0.9604 0.1749 7.5120 0.0000 0.0000 0.0000 1.4375 -6.5519 -2.6247 0.0000 0.0000 0.0000 -0.9780 2.4358 0.2125 6.2424 -11.5995 -33.5079 -8.4681 5.4585 27.7466 2.9111 -0.6699 -0.1276 0.0000 0.0000 0.0000 0.9185 -1.3301 0.2473 -3.9761 10.2864 -28.7329 4.3140 -5.2651 21.1746 -1.7824 -2.4947 -0.0441 0.0000 0.0000 0.0000 3.1077 6.4261 -2.8474 -0.0826 -1.3577 1.5942 5.5451 -0.5207 -0.0908 -0.0000 0.0000 -0.0000
